<?xml version="1.0" encoding="utf-8"?>
<!-- Generator: Adobe Illustrator 25.0.0, SVG Export Plug-In . SVG Version: 6.00 Build 0)  -->
<svg version="1.1" id="Layer_1" xmlns="http://www.w3.org/2000/svg" xmlns:xlink="http://www.w3.org/1999/xlink" x="0px" y="0px"
	 viewBox="0 0 500 500" style="enable-background:new 0 0 500 500;" xml:space="preserve">
<style type="text/css">
	.st0{fill:#000B1D;}
	.st1{fill:#FFFFFF;}
</style>
<g id="Stock" transform="translate(2719 664)">
	<path id="_28" class="st0" d="M-2615.2-626.6h292.3c36.7,0,66.4,29.7,66.4,66.4v292.3c0,36.7-29.7,66.4-66.4,66.4h-292.3
		c-36.7,0-66.4-29.7-66.4-66.4v-292.3C-2681.6-596.9-2651.9-626.6-2615.2-626.6z"/>
	<path id="_56" class="st1" d="M-2579.6-335.3L-2579.6-335.3c-1.9-1.4-2.9-3.6-2.8-5.9v-27.1c0-0.6,0.1-1.2,0.3-1.8
		c0.5-1.6,2.2-2.6,3.8-2.1c0.1,0,0.2,0,0.2,0.1c0.6,0.2,1.1,0.5,1.6,0.9c13.4,9.9,29.5,15.4,46.2,15.6c10.1,0,17-2,21.2-5.5
		c4.3-3.5,6.8-8.7,6.6-14.3c0.1-5.1-1.7-10.1-5.2-13.9l0,0c-3.3-3.8-10-8.2-20.5-13h0l-10.5-5c-14.9-7.1-25.9-14.9-32.7-23.6v0
		c-6.9-9.3-10.4-20.6-9.9-32.1c-0.3-14.6,5.9-28.6,16.8-38.2c11.3-10.3,27.1-15.3,47.2-15.3c16.7,0,30.3,2.6,40.5,7.9
		c2.1,1,3.3,3.2,3.1,5.5v25.2c0,1.1-0.4,2.2-1.2,3l-0.3,0.3l-0.3,0.2c-0.7,0.3-1.4,0.4-2.1,0.3c-0.6-0.1-1.1-0.3-1.6-0.6l-0.1-0.1
		l-0.1-0.1c-11.5-7.2-24.8-10.9-38.3-10.7c-9.7,0-16.2,2.2-20.2,6.2c-3.7,3.3-5.8,8-6,13c0,4.8,1.7,9.5,5,13.1
		c3.3,3.8,10,8.2,20.2,13l11.1,5c16.4,7.6,27.9,15.8,34.4,24.8c6.5,9.1,9.9,20.1,9.6,31.2c0.6,15.7-6.3,30.7-18.6,40.5
		c-12.2,9.8-28.5,14.6-48.8,14.6C-2547.9-323.7-2564.6-327.5-2579.6-335.3L-2579.6-335.3z"/>
	<path id="_57" class="st1" d="M-2362.9-331.8l-0.2,0.1c-7.9,3.2-16.5,4.6-25,4.3c-12.2,0-21.8-3.3-28.3-10.3
		c-6.5-7-9.5-17.2-9.5-30.2v-72h-14.1l-0.2,0c-1.2-0.1-2.2-0.7-3-1.6c-0.7-0.9-1-2-1-3.2v-19.9c-0.2-2.4,1.6-4.4,4-4.6
		c0.2,0,0.4,0,0.6,0h14c0-10.4,1-20.8,2.8-31.1v-0.1c0.4-2.1,2-3.8,4.1-4.2h0l27.9-3.6c1.1-0.3,2.3-0.2,3.3,0.4
		c1.1,0.7,1.7,2,1.7,3.3v0.1v0.1c-0.9,9-1.3,20.7-1.4,35h23.1c2.2-0.1,4.1,1.5,4.3,3.8c0,0.2,0,0.3,0,0.5v20.7
		c0.1,2.2-1.5,4.1-3.8,4.3c-0.2,0-0.3,0-0.5,0h-23.4v68.5c-0.4,4.3,0.6,8.7,2.8,12.4c2.5,2.5,6,3.7,9.5,3.2c3.5-0.1,7-0.6,10.4-1.6
		c1.1-0.4,2.4-0.2,3.4,0.5c0.9,0.8,1.3,1.9,1.3,3.1v16.6c0.1,2.1-0.9,4.1-2.7,5.3L-2362.9-331.8z"/>
</g>
</svg>
