<?xml version="1.0" encoding="utf-8"?>
<!-- Generator: Adobe Illustrator 24.0.1, SVG Export Plug-In . SVG Version: 6.00 Build 0)  -->
<svg version="1.1" id="Layer_1" xmlns="http://www.w3.org/2000/svg" xmlns:xlink="http://www.w3.org/1999/xlink" x="0px" y="0px"
	 viewBox="0 0 120 60" style="enable-background:new 0 0 120 60;" xml:space="preserve">
<style type="text/css">
	.st0{fill:#FFFFFF;}
</style>
<path class="st0" d="M39.5,7.3h32.1c2.8,0.2,4.9,2.6,4.8,5.4c3.1-1.8,6.3-3.3,9.4-5c0,2.6,0,5.3,0,7.9c-7.3,4-14.7,7.8-22.1,11.6
	c7.3,4,14.8,7.6,22.1,11.7c0,2.6,0,5.3,0,7.9c-3.1-1.7-6.3-3.3-9.4-5.1c0.1,2.8-2,5.2-4.8,5.4H39.9c-2.4-0.1-4.7-1.9-4.8-4.4v-8.6
	c4.4-2.2,8.9-4.6,13.3-7c-4.5-2.2-8.8-4.6-13.3-6.8v-8.6C35.3,9.4,37.1,7.5,39.5,7.3z M39.5,14.7c5.5,2.8,11,5.7,16.5,8.6
	c5.4-2.9,10.8-5.6,16.2-8.5C61.3,14.7,50.4,14.7,39.5,14.7L39.5,14.7z M39.5,39.7c10.9,0.1,21.9,0,32.8,0c-5.4-3-11-5.7-16.4-8.6
	C50.5,34,45.1,36.8,39.5,39.7L39.5,39.7z"/>
</svg>
